<svg xmlns="http://www.w3.org/2000/svg" viewBox="0 0 2996 2092">
	<path fill="#246F37" d="M651.8 377.8a48.5 48.5 0 0 1 22.7 43.6c-.4 58-.8 116 0 173.9a49 49 0 0 1-50 50.6c-58.3-.4-116.5 0-174.8-.6-8 0-16.8-1.8-24-5.2a43.5 43.5 0 0 1-26.1-38.5l-.3-6 .4-177.8c.1-21 12.7-38.4 32.2-44.5a60 60 0 0 1 17.6-2.7c58-.1 116 0 173.9.2a52 52 0 0 1 28.4 7z"/>
	<path fill="#246F37" d="M2752.4 644c-25-7.9-36.5-23.6-36.5-49 0-58 0-116 .2-174 0-31 19.7-50.5 50.7-50.5 57.4 0 114.7 0 172 .3 6.2 0 12.7.7 18.7 2.4 19 5.3 31.7 22 33 41.9.2 3.3.2 6.6.2 10-.1 56.6-1 113.2 0 169.9.4 28-20.8 51.4-51.6 51-57-1-114-.4-171-.5-5 0-9.9-.8-15.7-1.4z"/>
	<path fill="#34A14C" d="M1965 378.6a47 47 0 0 1 26.2-7.5l62-.2h107c5.3 0 10.6.1 16 .6a44.8 44.8 0 0 1 41.9 45.1c.2 61 .2 122 0 183a45.7 45.7 0 0 1-44.7 46c-4.3.2-8.7 0-13 0h-164a81 81 0 0 1-15.8-1.4 45.4 45.4 0 0 1-36.4-42.1c-.2-2.3-.1-4.7-.1-7 0-58 .1-116-.1-174a48 48 0 0 1 21-42.5z"/>
	<path fill="#256F37" d="M1558.3 548V419a46.8 46.8 0 0 1 50.6-48.3h173c30.7.3 49.7 19.4 49.8 50.1v175c0 30.5-19.3 49.7-50.1 49.8h-172.9c-31.3 0-50.3-19.2-50.3-50.6v-47z"/>
	<path fill="#34A14C" d="M1056.3 617.7a46.2 46.2 0 0 1-44.6 27.7c-59.6.2-119.3.4-179 .2-26.9 0-46.6-20-46.7-47-.2-60.3-.3-120.6-.2-181a44.4 44.4 0 0 1 45.1-46c60.7-.7 121.3-1 182-.7 28 0 46.9 19.8 47 47.6.2 59.7.3 119.4 0 179 0 6.5-2.1 13-3.6 20.2z"/>
	<path fill="#34A14C" d="M1242 645.5c-11-.3-21 .3-30.9-1.1a44.4 44.4 0 0 1-39.1-44.6c-.2-61-.2-122 .2-183a45.3 45.3 0 0 1 40.7-45.5c2.3-.3 4.6-.6 7-.6 60.2.2 120.5.2 180.8.8 22 .2 38.5 13.4 44 34 1.1 4 1.5 8.4 1.5 12.7l-.1 179.9a45.9 45.9 0 0 1-48.2 47.5H1242z"/>
	<path fill="#246F37" d="M1326 1446.3c25 0 49-.2 73 .2a46.3 46.3 0 0 1 47.3 48.4l-.1 177.9c-.1 28.6-19.6 48-48.5 48.4-20.6.3-41.3.1-62 0-37.3-.1-74.6-.2-111.9-.6-6 0-12-.1-17.8-1.6-20-5.2-34-23-34.1-44-.2-60.6-.2-121.3.2-181.9a46 46 0 0 1 47-46.8c35.3-.3 70.6 0 106.9 0z"/>
	<path fill="#34A14C" d="M2592.2 385.9c8.7 10 12.2 21 12.1 33.6l-.3 177.9c0 29-19.3 48.2-48.3 48.2-57.7.1-115.3 0-173-.2-6.5 0-13.3-.5-19.7-2.2a45 45 0 0 1-32.7-44c-.2-20.3 0-40.7 0-61l.1-118c0-11.2 2.4-21.7 9.3-30.9a44.7 44.7 0 0 1 37-18.5c47-.1 94 .2 141 .3 13 0 26 .3 39 .2a46.3 46.3 0 0 1 35.5 14.6z"/>
	<path fill="#246F37" d="M1944 1488.9c5.1-27.5 22.5-42.4 49.3-42.5 58.6-.2 117.3.1 175.9-.3a48.1 48.1 0 0 1 49.2 49c-.6 59.3-.6 118.6.1 178a47.1 47.1 0 0 1-46.2 47.5c-15.6 0-31.3.4-47 .4l-130.8.3a47.2 47.2 0 0 1-50.5-48.7l-.1-133.9V1489z"/>
	<path fill="#9AE8AA" d="M1172.2 1988v-135a46 46 0 0 1 33.4-45.7c4.7-1.3 9.8-1.5 14.7-1.5 38.7-.1 77.4 0 116-.2 19.3-.1 38.6-1 58-1.2 11-.1 21.8 1.5 31.3 8a44.4 44.4 0 0 1 20.4 38c.2 26.3 0 52.7.1 79 0 33.7-.6 67.3.2 101 .7 27.4-18.4 49.2-49.5 49.4h-129c-16 0-32 .2-48 0a45.5 45.5 0 0 1-43.9-30.3 67.6 67.6 0 0 1-3.5-20.5c-.5-13.3-.2-26.7-.2-41z"/>
	<path fill="#246E37" d="M674 955.6c.6 26-20.3 48.8-49.6 48.5-58-.7-116-.3-174-.8-8 0-16.8-1.5-24.2-4.7a43.1 43.1 0 0 1-26.7-37c-.3-3-.5-6-.5-9 .2-58.6.4-117.3.8-176a45.7 45.7 0 0 1 47.6-47c59.6 0 119.3 0 179 .4 22.8 0 40.6 13 46.3 34a72.4 72.4 0 0 1 1.7 18.7l-.3 172.9z"/>
	<path fill="#34A14C" d="M1346 1003.8c-42.3 0-83.6-.5-124.9 0a47.7 47.7 0 0 1-49.4-49.6c.8-59 .3-117.9.4-176.8.1-23.1 13-40.7 33.9-46.3a47 47 0 0 1 11.8-1.4c60.6 0 121.3 0 181.9.2a44.7 44.7 0 0 1 46.5 46.7c.1 60 0 119.9-.2 179.8a45.5 45.5 0 0 1-47 47.4c-17.4.3-34.7 0-53 0z"/>
	<path fill="#34A14C" d="M1558.3 1528v-35a45.3 45.3 0 0 1 46-46.5c60.6-.3 121.2-.3 181.8 0a45 45 0 0 1 46 46.3c.1 60.6-.2 121.2.1 181.9a46 46 0 0 1-45.4 45.9c-61-.3-121.9-.4-182.8 0a46 46 0 0 1-45.7-46.7V1528z"/>
	<path fill="#34A14B" d="M1242 1362.5c-9.3 0-17.7.1-26-.2a45.7 45.7 0 0 1-44-43.4V1137c.1-6.2.8-12.8 3-18.5a45 45 0 0 1 40-30.2c2.9-.3 5.9-.2 8.9-.2l170.8.1c7 0 14.2.7 20.7 2.8a44.8 44.8 0 0 1 30.7 43.4c.2 34.6.1 69.3.1 104 0 25.2-.6 50.6.2 75.9a47.2 47.2 0 0 1-47.5 48.3c-52-.5-104-.1-156.9-.1z"/>
	<path fill="#34A14C" d="M2148 1003.8c-52.3 0-103.7-.2-155-.1-12 0-23.1-2.9-32.5-10.8a45.8 45.8 0 0 1-16.6-37l.2-158.9v-22c.8-26 20.1-45.2 46.2-45.3 60.6 0 121.3 0 182 .2a44.8 44.8 0 0 1 45.9 46.4c.1 60.3 0 120.6-.2 181a45.5 45.5 0 0 1-46 46.5c-7.7.2-15.3 0-24 0z"/>
	<path fill="#34A14C" d="M928 729.8c28.7 0 56.3.6 84-.2a46.8 46.8 0 0 1 48 47.7c-.3 59.7 0 119.3-.2 179a45.6 45.6 0 0 1-47.2 47.3c-60 .2-120 .2-179.9 0a45.3 45.3 0 0 1-46.8-46.7c-.1-60.3-.2-120.6 0-181 .1-26.7 19.5-46 46.2-46 31.6-.3 63.3-.1 95.9-.1z"/>
	<path fill="#9AE8AA" d="M454 286.3c-10.9 0-20.7.4-30-5a44 44 0 0 1-24-39.7c-.3-61.3.1-122.6-.3-183.9A45.5 45.5 0 0 1 437.3 14c6.2-.8 12.5-1.5 18.8-1.5 56-.2 112-.2 167.9-.2 17.7 0 32.5 6.2 42.5 21.5a44 44 0 0 1 7.4 24.5c.1 61 0 122 .2 182.9 0 26.3-24.3 45.6-46.2 45.3-57.6-.7-115.2-.2-173.8-.1z"/>
	<path fill="#9AE8AA" d="M192 1004H61a45 45 0 0 1-45.5-34.7 52.7 52.7 0 0 1-1.5-13.8c-.1-59.6.4-119.3-.4-179-.4-25 22-47 47.1-46.6 33.7.4 67.3 0 101 0 26.3 0 52.7.2 79 0a47 47 0 0 1 47.4 47.4c-.3 59.6-.3 119.3.1 179a46.6 46.6 0 0 1-47.2 47.6h-49z"/>
	<path fill="#246E37" d="M2961.6 1000.2c-6.9 1.3-13 3.3-19.2 3.3-59 .2-118 .2-176.9 0-25 0-43.3-13.9-48.5-36.4-.8-3.5-1-7.2-1-10.8 0-59.6.2-119.3 0-178.9 0-29 23.5-48.2 48-47.9 59.6.7 119.2.2 178.8.4 22.7 0 40.2 12.6 45.9 33 1.7 6.3 2 13.1 2 19.7 0 57.3-.4 114.6-.3 171.9 0 21.2-9 36.3-28.8 45.7z"/>
	<path fill="#34A14B" d="M2218.2 1240c0 26.3.2 51.7-.2 77-.3 21-13.4 38-33.2 43.7a55.1 55.1 0 0 1-14.8 1.7c-59.7 0-119.3 0-179-.2a45.5 45.5 0 0 1-47-47.5c-.2-59.6-.1-119.3.1-179a46 46 0 0 1 48.2-47.6c59.3-.1 118.6 0 178 .2a45.8 45.8 0 0 1 46.5 34.9 61 61 0 0 1 1.4 14.8v102z"/>
	<path fill="#34A14C" d="M1821 1346.8a46.8 46.8 0 0 1-37.2 15.6c-59-.2-118-.7-176.9.2-25.8.4-49-19.3-48.7-49 .5-59 0-118 .2-177 0-29 19-48.4 48-48.5h178a45.3 45.3 0 0 1 47.6 47.8l.1 179c0 11.7-3.2 22.2-11.2 32z"/>
	<path fill="#9AE8AA" d="M785.9 1524v-29c.1-29.1 19.7-48.7 49.1-48.8h99c26 0 52-.2 78 0a46.3 46.3 0 0 1 48 46.9c0 60.3-.2 120.6.2 181a47.6 47.6 0 0 1-46.3 46.3 6821 6821 0 0 0-182 0 48 48 0 0 1-46.2-46.4c.8-49.7.2-99.3.2-150z"/>
	<path fill="#246F37" d="M1059.7 1278v37a47 47 0 0 1-47.3 47.5c-59.7-.6-119.3-.6-179 0a47.3 47.3 0 0 1-47.6-47.2c.3-60 0-120 .1-180 .1-27 19.7-46.9 46.7-47 60-.3 120-.3 180 0 27.5.1 47 20 47 47.7.3 47 .1 94 .1 142z"/>
	<path fill="#34A14C" d="M1832 852c0 34.7-.7 68.3 0 102a47.6 47.6 0 0 1-50 50c-58-.6-116-.1-174-.6-7.4 0-15.5-1.1-22.3-4a43.1 43.1 0 0 1-27.4-40.7c-.5-14 0-28 0-42v-138c0-10.2 2-19.8 7.7-28.4 8.8-13 21-20.5 36.8-20.5 61.3-.1 122.7-.2 184 .1A44.7 44.7 0 0 1 1832 775c.3 25.3 0 50.7 0 77z"/>
	<path fill="#9AE8AA" d="M399.8 1206c0-23.7.7-46.3-.2-69-1.1-26.7 19.6-48.7 49.1-48.8h159c10.2 0 20.7 0 30.7 2a44.3 44.3 0 0 1 35.5 43.7c.2 61.3.3 122.6 0 184a45.2 45.2 0 0 1-44.1 44.1c-62.3.3-124.6.3-187 0a44.6 44.6 0 0 1-42.9-44c-.2-37 0-74 0-112z"/>
	<path fill="#34A14C" d="M2540 729.7h20c23.3.7 43.5 19 43.7 42.4.7 63 .8 126 .3 189-.2 24-21 42-46.8 42.5-19 .2-38 0-57 0-40 .1-80-.4-120 .4-25.2.5-50-17-49.8-49.3.1-59-.2-118-.1-177 0-23.7 13.8-41.7 35.8-46.7 4.8-1 10-1.1 14.9-1.1l159-.2z"/>
	<path fill="#246F37" d="M2538 1088.5h19c27.7.6 47 20 47 47.6.2 44.6 0 89.2 0 133.9-.1 16 .2 32-.3 48a45 45 0 0 1-47.7 44.4c-59.6 0-119.2 0-178.9-.2a45.2 45.2 0 0 1-46.6-46.7c-.2-59.6-.2-119.3.2-178.9.2-29.5 19.8-48.3 49.4-48.4l157.9.3z"/>
	<path fill="#246E36" d="M1944.8 250.3c-.5-4.5-1-8.1-1-11.8 0-59 .2-118 .1-177a48 48 0 0 1 10-30.7c9.5-12 22.2-18 37.3-18 46.7 0 93.3.2 140 .3 14.7 0 29.3-.1 44 .6a45 45 0 0 1 43 47.1l-.1 178c-.1 28-19 47.7-46.8 47.8-61 .2-122 0-183-.4-20.7-.1-36.5-13.4-43.5-35.9z"/>
	<path fill="#246F37" d="M1558.4 2021.9V1856c0-9.1 1-18 5.6-26a44 44 0 0 1 39.8-24c18.3-.4 36.7-.2 55-.2h125.9c14.1 0 26 5 35.4 15.5a44.1 44.1 0 0 1 11.5 30c0 60.7.2 121.3 0 182a44.8 44.8 0 0 1-42.8 45.3c-4 .4-8 .4-12 .4h-163.9c-4 0-8 0-12-.4-24-2.1-41-19.7-42.4-43.8-.2-4 0-8 0-13z"/>
	<path fill="#9AE8AA" d="M17 616.3c-1.3-6-3-11.1-3-16.3-.2-61 .2-122-.3-183A47.2 47.2 0 0 1 48 373a56 56 0 0 1 10.9-1c61-.1 121.9.5 182.9-.4a48.1 48.1 0 0 1 46.7 47c-1 59.6-.3 119.3-.4 179a44 44 0 0 1-42.1 46.6c-63.6 0-127.3.4-190.9-.3-17.8-.2-30.2-10.7-38-27.6z"/>
	<path fill="#236E36" d="M1358 286.7h-132.9a79 79 0 0 1-19.8-2 44.8 44.8 0 0 1-33.4-43.4c-.3-25.3 0-50.6 0-75.9 0-34.6.5-69.3-.3-103.9a46.9 46.9 0 0 1 46.6-48.3l8-.1H1392c7 0 14.1.2 20.8 2a45.2 45.2 0 0 1 33.4 42.4v181.9c0 22.2-13 39.9-33.4 45.4a70 70 0 0 1-16.8 1.8c-12.4.3-24.7.1-38 .1z"/>
	<path fill="#246E37" d="M801 275a46.7 46.7 0 0 1-15.3-36.1c.2-59.4.5-118.7 0-178a46.4 46.4 0 0 1 47-47.7c61 .4 122 .2 182.9.6a44.7 44.7 0 0 1 44 42c.3 2.7.2 5.3.2 8 0 57.7 0 115.3-.3 173 0 6.2-.7 12.7-2.5 18.7a43.3 43.3 0 0 1-41 30.8c-22.4.4-44.7 0-67 0-38.4 0-76.7-.2-115 0-12.2 0-23-3-33-11.2z"/>
	<path fill="#246E37" d="M2342.3 28.4a46.5 46.5 0 0 1 35.5-14.8c59.3.1 118.6.5 178-.3a47 47 0 0 1 48.2 48.3c-.5 59-.4 118 .3 177a47.1 47.1 0 0 1-47.8 47.9c-58.6-.7-117.3 0-176 0-5.5 0-11.3-.3-16.7-1.7-20-5.5-33-22.4-33-44.8-.5-60.3-.4-120.6-.4-180.9 0-11.3 3.9-21.5 12-30.7z"/>
  </svg>